<svg xmlns="http://www.w3.org/2000/svg" id="Layer_1" data-name="Layer 1" viewBox="0 0 731.95 194.97"><defs><style>.cls-1{fill:#000;}</style></defs><path class="cls-1" d="M164.56,63.54a5,5,0,0,0-8.57-.23l-34.44,55.24h0L78.94,56.48a5,5,0,0,0-8.32.2l-35.86,58A65.13,65.13,0,0,1,135.81,46a4.94,4.94,0,0,0,7.11-1.35l.18-.3a5,5,0,0,0-1.32-6.67,75.38,75.38,0,0,0-113,91.1,5,5,0,0,0,8.75.58L75.07,68.87l42.6,62a5,5,0,0,0,8.3-.19l33.45-53.65a65.15,65.15,0,0,1-99.09,75.1,5,5,0,0,0-7.19,1.37l-.14.22a5,5,0,0,0,1.33,6.66A75.37,75.37,0,0,0,164.56,63.54Z"></path><path class="cls-1" d="M232.4,71.94l24.76,38.8V67.31h11.06v63.47h-11.7l-29.28-46v46H216.17V74.93c0-4.26,2.82-8.25,7.35-8.34C227.6,66.59,230.32,68.76,232.4,71.94Zm57.12,7.61a12.25,12.25,0,0,1,12.24-12.24h31.73V78.37H304.66a2.91,2.91,0,0,0-2.9,2.82V92.07h23.48v10.6H301.76v17h31.73v11.06h-44Zm97.92-12.24h11.78l-20.31,58.3a8.55,8.55,0,0,1-8,5.9,9.22,9.22,0,0,1-8.52-5.9L342.1,67.31h13.06l16,48.15Zm38.25,4.9a9,9,0,0,1,8.43-5.62,8.82,8.82,0,0,1,8.35,5.62l22.21,58.57h-13L446.27,116H421.43l-5.53,14.78H403.75Zm-.36,33h17.05l-8.53-23.75Zm73.89-37.9c11.06.09,19.77,2.36,25.39,11.06,4,6,5.34,13.33,5.34,20.13,0,8.16-1.81,16.32-6.52,22.67-5.81,7.53-14.24,9.61-23.3,9.61H477.82V79.55a12.32,12.32,0,0,1,12.33-12.24Zm-9.16,52.32h8.52c5.08,0,11.25-.18,14.78-4.35,3.81-4.54,4-10.88,4-16.32,0-4.63-.45-10.52-2.81-14.42-3.08-5.53-9.16-6.07-14.78-6.07H493a2.85,2.85,0,0,0-2.9,2.81Zm82.5-53.31c17.5,0,30.1,12.87,30.1,32.73s-12.6,32.73-30.1,32.73-30-12.88-30-32.73S555.06,66.32,572.56,66.32Zm0,54.31c10.61,0,17.5-8.25,17.5-21.58,0-12-6.89-21.67-17.5-21.67s-17.41,8.34-17.41,21.67S562,120.63,572.56,120.63Zm79.15-23.12c5,3.53,7.16,9.25,7.16,14.87a17.53,17.53,0,0,1-6.25,13.41c-5.44,4.54-12.61,6-19.41,6a60.48,60.48,0,0,1-18.86-3.27V117.36h1.46a53.86,53.86,0,0,0,17.49,3.36c4.9,0,13.78-1.36,13.69-8.16-.09-4.36-4.26-6.53-8.16-7.71a103.67,103.67,0,0,1-14.41-5c-6.53-3.26-10.34-9.25-10.34-16.14a17.09,17.09,0,0,1,6.17-12.6c4.08-3.35,9.43-4.71,14.68-4.8A70.35,70.35,0,0,1,654.7,69.4V80.46h-1.63a56.09,56.09,0,0,0-17.41-3.08c-3.81,0-9.7,1.36-9.7,6.07s7.44,6.62,11.61,8.16C642.37,93.15,647.36,94.6,651.71,97.51Z"></path><path class="cls-1" d="M696.9,60.88A12.77,12.77,0,1,1,684.12,48.1,12.57,12.57,0,0,1,696.9,60.88Zm-1.22,0c0-7.09-5.06-11.62-11.56-11.62S672.6,53.79,672.6,60.88s5,11.63,11.52,11.63A11.18,11.18,0,0,0,695.68,60.88Zm-11.45-6.46c2.91,0,4.7,1.44,4.7,3.9A3.55,3.55,0,0,1,686.12,62l3.34,5.34h-1.3L685,62.22a5.94,5.94,0,0,1-.73,0h-2.67v5.1h-1.13V54.42Zm0,6.78c2.45,0,3.58-.91,3.58-2.88s-1.16-2.84-3.58-2.84h-2.67V61.2Z"></path></svg>
